# xmcd
#
# Track frame offsets: 
#        150
#        24102
#        37597
#        52830
#        64702
#        85425
#        99192
#        116625
#        138335
#        151532
#        169880
#        196902
#        217867
#        237445
#        250870
#
# Disc length: 3597 seconds
#
# Revision: 2
# Processed by: cddbd v1.5.2PL0 Copyright (c) Steve Scherf et al.
# Submitted via: ExactAudioCopyFreeDBPlugin 1.0
#
DISCID=ae0e0b0f
DTITLE=Various Artist - The Best Of American Folk Blues Festivals 1963-1966 (
DTITLE=Disc 1)
DYEAR=1900
DGENRE=Blues
TTITLE0=Matt Murphy - Matt's Guitar Boogie
TTITLE1=Memphis Slim - Wish Me Well
TTITLE2=Willie Dixon - Sittin' And Cryin' The Blues
TTITLE3=Willie Dixon - Crazy For My Baby
TTITLE4=Sonny Boy Williamson - I Don't Know
TTITLE5=Sonny Boy Williamson - Sonny Boy's Harmonica Blues
TTITLE6=Otis Spann - Had My Fun (Goin' Down Slow)
TTITLE7=Muddy Waters - Five Long Years
TTITLE8=Bye Bye Blues
TTITLE9=Hubert Sumlin - No Title Boogie
TTITLE10=Howlin' Wolf - Dust My Broom
TTITLE11=Sonny Boy Williamson - Dissatisfied
TTITLE12=Sunnyland Slim - Everytime I Get To Drinkin'
TTITLE13=Sugar Pie DeSant - Slip In Mules
TTITLE14=Sonny Boy Williamson - I'm Trying To Make London My Home
EXTD=
EXTT0=
EXTT1=
EXTT2=
EXTT3=
EXTT4=
EXTT5=
EXTT6=
EXTT7=
EXTT8=
EXTT9=
EXTT10=
EXTT11=
EXTT12=
EXTT13=
EXTT14=
PLAYORDER=
